<svg xmlns="http://www.w3.org/2000/svg" viewBox="0 0 202.6 80"><path d="M0 49.3V79c0 .6.4 1 1 1h200.6c.6 0 1-.4 1-1V49.3c0-.6-.4-1-1-1H1c-.5 0-1 .4-1 1z" fill="#fbae35"/><path d="M167.5 29.3l-2.8-21.6c-.5-4.4-4.3-7.7-8.7-7.7h-10.8c-2.4 0-4.7 1-6.3 2.7l-2.5 2.4c-1.4 1.4-3.8 1.5-5.2.1l-.1-.1-2.4-2.5c-1.7-1.7-4-2.7-6.3-2.6h-10.8c-4.4 0-8.2 3.2-8.7 7.6l-2.8 21.6c-.8 5.6 3.2 10.6 8.8 11.4 3.1.4 6.2-.6 8.5-2.8l8.3-7.9c.6-.6 1.6-1.1 2.6-1h11.1c1 0 1.8.3 2.5 1l8.3 7.9c4.1 4 10.7 3.7 14.5-.1 2.2-2.1 3.3-5.4 2.8-8.4zm-45.4-10.1h-2.7v2.7c0 1.5-1.2 2.7-2.7 2.7s-2.7-1.2-2.7-2.7v-2.7h-2.8c-1.5 0-2.7-1.2-2.7-2.7s1.2-2.7 2.7-2.7h2.7v-2.7c0-1.5 1.2-2.7 2.7-2.7 1.5 0 2.7 1.2 2.7 2.7v2.7h2.7c1.5 0 2.7 1.2 2.7 2.7.1 1.6-1.2 2.7-2.6 2.7z" fill-rule="evenodd" clip-rule="evenodd" fill="#fff"/><circle cx="150.1" cy="11.6" r="2.7" fill="#f7931f"/><circle cx="151" cy="21.9" r="2.7" fill="#4cc1ef"/><circle cx="145.6" cy="16.6" r="2.7" fill="#ffcc4d"/><circle cx="156.4" cy="16.6" r="2.7" fill="#449ac6"/><path d="M37.1 55.8c-5 0-8.8 3.5-8.8 8.3 0 4.8 3.8 8.4 8.8 8.4s8.8-3.6 8.8-8.4c0-4.7-3.8-8.3-8.8-8.3zm.1 13.5c-2.7 0-5-2.2-5-5.1 0-2.9 2.3-5.1 5-5.1s5 2.3 5 5.1-2.3 5.1-5 5.1zm129.1-13.5c-5 0-8.8 3.5-8.8 8.3 0 4.8 3.8 8.4 8.8 8.4 5 0 8.8-3.6 8.8-8.4 0-4.7-3.8-8.3-8.8-8.3zm.1 13.5c-2.7 0-5-2.2-5-5.1 0-2.9 2.3-5.1 5-5.1s5 2.3 5 5.1-2.3 5.1-5 5.1zM16.2 72.5c-4.9 0-8.6-3.6-8.6-8.4 0-4.7 3.8-8.3 8.7-8.3 2.4 0 4.9 1.1 6.4 2.7l-2.2 2.6c-1.1-1.3-2.7-2.2-4.3-2.2-2.8 0-5 2.2-5 5s2.2 5 5 5c1.5 0 3.1-.8 4.3-2l2.2 2.4c-1.6 2.1-4.1 3.2-6.5 3.2zm47.6-.1H53V55.9h3.7v13.2h7.1zm17.7 0H70.7V55.9h3.7v13.2h7.1zm19.7 0H88.4V55.9H101v3h-8.9v3.6h8v3.1h-8v3.6h9.1zm15.1.1c-4.9 0-8.6-3.6-8.6-8.4 0-4.7 3.8-8.3 8.7-8.3 2.4 0 4.9 1.1 6.4 2.7l-2.2 2.6c-1.1-1.3-2.7-2.2-4.3-2.2-2.8 0-5 2.2-5 5s2.2 5 5 5c1.5 0 3.1-.8 4.3-2l2.2 2.4c-1.6 2.1-4.1 3.2-6.5 3.2zM142 59h-5.1v13.4h-3.7V59h-5v-3.1H142zm6.7-3.1h3.7v16.5h-3.7zm46.2 16.5h-3.4l-7.9-10.6v10.6h-3.5V55.9h3.4l7.9 10.6V55.9h3.5zM0 29.9h2.4v4h10.4v2.9H2.5v4H0zm0-6.3h5.4v-5.9H0v-2.9h13v2.9H7.9v5.9H13v2.9H0zM0 0h2.4v7.2h2.8V.9h2.4v6.2h2.9V0H13v10.1H0zm37.9 8.7c3.3 0 7 1.5 9.7 3.8.4.3 1 .3 1.4-.2l4.6-5.7c.3-.4.3-1.1-.1-1.4C49.4 2 43.5 0 37.9 0 25.3 0 16 8.7 16 20.3s9.1 20.3 21.3 20.3c5.4 0 11.8-2.1 16.1-4.8.3-.2.4-.5.4-.8V20.8c0-.6-.4-1-1-1h-6.9c-.6 0-1 .4-1 1v8.3c0 .4-.2.7-.6.9-2.2 1-4.5 1.6-6.3 1.6-6.4 0-11.3-4.9-11.3-11.4S31.5 8.7 37.9 8.7zm143.6-.2h20.1c.6 0 1-.4 1-1V1c0-.6-.4-1-1-1h-29.9c-.6 0-1 .4-1 1v38.7c0 .6.4 1 1 1h29.9c.6 0 1-.4 1-1v-6.3c0-.6-.4-1-1-1h-20.1c-.1 0-.2-.1-.2-.2v-7.3c0-.1.1-.2.2-.2h18.2c.6 0 1-.4 1-1v-6.5c0-.6-.4-1-1-1h-18.2c-.1 0-.2-.1-.2-.2V8.7c0-.1.1-.2.2-.2zM84 .6c-.1-.3-.5-.6-.9-.6H72.6c-.4 0-.8.3-.9.6L55.3 39.3c-.3.7.2 1.4.9 1.4h8.7c.4 0 .8-.2.9-.6l2.4-5.9c.2-.4.5-.6.9-.6h16.4c.4 0 .8.3.9.6l2.3 5.9c.1.4.5.6.9.6h9.1c.7 0 1.2-.7.9-1.4L84 .6zm-1.4 24.8H72c-.1 0-.2-.1-.2-.3l5.4-13.7c.1-.2.3-.2.4 0l5.3 13.7c0 .1-.1.3-.3.3z" fill="#fff"/></svg>